<svg width="626" height="96" viewBox="0 0 626 96" fill="none" xmlns="http://www.w3.org/2000/svg">
<path d="M53.104 3.36C53.872 3.36 54.896 4.032 56.176 5.376C57.456 6.72 58.096 7.744 58.096 8.44799C58.096 9.088 57.872 9.6 57.424 9.984C57.04 10.368 56.4 10.88 55.504 11.52C54.608 12.16 53.84 12.8 53.2 13.44C50.832 15.744 43.888 24.32 32.368 39.168C34.096 41.984 36.592 45.856 39.856 50.784C43.12 55.648 45.456 59.328 46.864 61.824C48.336 64.256 49.072 65.984 49.072 67.008C49.072 68.032 48.816 68.832 48.304 69.408C47.792 69.92 47.216 70.176 46.576 70.176C44.976 70.176 42.32 67.904 38.608 63.36C34.96 58.752 31.056 53.024 26.896 46.176C23.568 50.592 21.392 53.44 20.368 54.72C19.408 56 18.384 57.376 17.296 58.848C16.208 60.256 15.312 61.376 14.608 62.208C13.968 62.976 13.2 63.872 12.304 64.896C11.472 65.856 10.768 66.624 10.192 67.2C9.616 67.712 9.008 68.224 8.368 68.736C7.216 69.632 6.128 70.08 5.104 70.08C4.144 70.08 3.12 69.664 2.032 68.832C0.944 68 0.4 67.328 0.4 66.816C0.4 66.304 0.432 65.984 0.496 65.856C0.56 65.664 0.656 65.472 0.784 65.28C0.976 65.024 1.104 64.832 1.168 64.704C1.296 64.576 1.808 64.064 2.704 63.168C7.888 57.536 14.544 49.408 22.672 38.784C14.032 23.232 9.712 12.16 9.712 5.568C9.712 3.84 10.16 2.976 11.056 2.976C12.912 2.976 14.736 3.456 16.528 4.41599C18.384 5.31199 19.312 6.368 19.312 7.584C19.312 13.472 22.192 21.504 27.952 31.68C36.976 19.2 42.96 11.36 45.904 8.16C48.912 4.96 51.312 3.36 53.104 3.36ZM99.1863 38.88C99.1863 42.272 97.3303 45.056 93.6183 47.232C89.9703 49.344 85.8103 50.4 81.1383 50.4C76.5303 50.4 72.3383 49.888 68.5623 48.864C67.6663 51.68 67.2183 54.208 67.2183 56.448C67.2183 58.624 67.8903 60.32 69.2343 61.536C70.6423 62.752 72.9143 63.36 76.0503 63.36C79.2503 63.36 82.5143 62.816 85.8423 61.728C89.2343 60.576 91.0903 60 91.4103 60C93.0743 60 93.9063 60.64 93.9063 61.92C93.9063 63.648 91.9543 65.536 88.0503 67.584C84.1463 69.568 80.3383 70.56 76.6263 70.56C71.6343 70.56 67.5703 69.088 64.4343 66.144C61.2983 63.136 59.7303 59.36 59.7303 54.816C59.7303 50.272 60.9463 45.536 63.3783 40.608C65.8103 35.616 68.9463 31.424 72.7863 28.032C76.6263 24.64 80.4343 22.944 84.2103 22.944C87.9863 22.944 91.4103 24.736 94.4823 28.32C97.6183 31.904 99.1863 35.424 99.1863 38.88ZM84.6903 30.528C82.3223 30.528 79.8583 31.776 77.2983 34.272C74.7383 36.704 72.5623 39.744 70.7703 43.392C73.3303 43.968 76.2423 44.256 79.5063 44.256C82.7703 44.256 85.6183 43.744 88.0503 42.72C90.4823 41.632 91.6983 40.224 91.6983 38.496C91.6983 36.768 90.8983 35.008 89.2983 33.216C87.7623 31.424 86.2263 30.528 84.6903 30.528ZM149.736 70.08C148.84 70.08 147.784 69.344 146.568 67.872C145.416 66.336 144.84 64.768 144.84 63.168C144.84 61.504 146.92 52.608 151.08 36.48C155.24 20.352 157.32 10.24 157.32 6.144C157.32 4.99199 157.448 4.192 157.704 3.744C157.96 3.296 158.536 3.07199 159.432 3.07199C160.392 3.07199 161.512 4.064 162.792 6.048C164.072 8.032 164.712 10.304 164.712 12.864C164.712 15.424 163.048 23.008 159.72 35.616C165.544 27.68 171.688 20.384 178.152 13.728C184.616 7.008 188.712 3.648 190.44 3.648C191.72 3.648 192.904 4.064 193.992 4.89599C195.144 5.72799 195.72 6.56 195.72 7.392C195.72 8.16 194.184 9.952 191.112 12.768C188.104 15.52 184.04 19.392 178.92 24.384C173.8 29.376 169.416 34.368 165.768 39.36C165.768 41.984 166.472 44.832 167.88 47.904C170.12 53.024 174.728 57.28 181.704 60.672C184.712 62.144 187.048 63.392 188.712 64.416C190.44 65.44 191.304 66.496 191.304 67.584C191.304 69.248 190.056 70.08 187.56 70.08C185.064 70.08 182.44 69.568 179.688 68.544C176.936 67.456 174.184 65.952 171.432 64.032C168.68 62.112 166.152 59.584 163.848 56.448C161.608 53.248 160.072 49.76 159.24 45.984C157.256 49.504 155.4 54.144 153.672 59.904C151.56 66.688 150.28 70.08 149.832 70.08H149.736ZM211.639 9.31199C211.639 8.032 212.151 6.816 213.175 5.664C214.199 4.512 215.223 3.936 216.247 3.936C217.335 3.936 218.615 5.248 220.087 7.872C221.559 10.432 222.295 12.576 222.295 14.304C222.295 14.944 222.007 15.52 221.431 16.032C220.855 16.544 220.247 16.8 219.607 16.8C218.071 16.8 216.343 15.872 214.423 14.016C212.567 12.16 211.639 10.592 211.639 9.31199ZM211.159 22.944C212.375 22.944 213.527 23.68 214.615 25.152C215.703 26.624 216.247 28.064 216.247 29.472C216.247 30.88 215.319 35.104 213.463 42.144C211.607 49.12 209.271 56.96 206.455 65.664C205.367 68.864 203.991 70.464 202.327 70.464C201.431 70.464 200.663 70.112 200.023 69.408C199.383 68.64 199.063 67.808 199.063 66.912C199.063 65.952 199.287 64.48 199.735 62.496C200.247 60.448 200.951 57.76 201.847 54.432C202.807 51.04 203.543 48.288 204.055 46.176C204.631 44.064 205.207 41.696 205.783 39.072C206.359 36.384 206.807 34.24 207.127 32.64C207.511 30.976 207.927 29.312 208.375 27.648C209.271 24.512 210.199 22.944 211.159 22.944ZM284.338 22.944C286.258 22.944 287.954 24.288 289.426 26.976C290.962 29.6 291.73 32.608 291.73 36C291.73 39.328 291.122 43.68 289.906 49.056C288.754 54.432 287.186 59.36 285.202 63.84C283.218 68.32 281.266 70.56 279.346 70.56C278.002 70.56 277.33 69.696 277.33 67.968C277.33 66.176 278.418 61.856 280.594 55.008C282.834 48.096 283.954 42.624 283.954 38.592C283.954 34.496 283.314 32.448 282.034 32.448C280.434 32.448 278.578 33.856 276.466 36.672C274.418 39.488 272.21 42.88 269.842 46.848C267.474 50.816 266.194 52.96 266.002 53.28C265.81 53.536 265.554 53.92 265.234 54.432C264.978 54.944 264.658 55.488 264.274 56.064C263.954 56.64 263.058 58.368 261.586 61.248C260.178 64.128 258.93 66.4 257.842 68.064C256.754 69.664 255.794 70.464 254.962 70.464C254.194 70.464 253.33 69.952 252.37 68.928C251.41 67.904 250.93 66.944 250.93 66.048C250.93 65.152 251.506 63.296 252.658 60.48C255.986 52.16 257.65 44.416 257.65 37.248C257.65 35.904 257.362 34.784 256.786 33.888C256.21 32.928 255.57 32.448 254.866 32.448C254.162 32.448 253.426 32.768 252.658 33.408C251.89 33.984 250.93 35.072 249.778 36.672C248.626 38.208 247.602 39.68 246.706 41.088C245.81 42.496 244.434 44.704 242.578 47.712C240.786 50.656 239.41 52.864 238.45 54.336C237.554 55.744 236.498 57.408 235.282 59.328C234.066 61.184 233.106 62.624 232.402 63.648C231.762 64.672 231.026 65.792 230.194 67.008C228.466 69.376 227.186 70.56 226.354 70.56C225.586 70.56 224.562 69.856 223.282 68.448C222.002 66.976 221.362 65.888 221.362 65.184C221.362 64.416 221.49 63.488 221.746 62.4C222.002 61.312 222.258 60.256 222.514 59.232C222.834 58.208 223.282 56.704 223.858 54.72C224.498 52.672 225.202 50.304 225.97 47.616C226.802 44.864 227.41 41.12 227.794 36.384C228.242 31.584 228.562 28.096 228.754 25.92C228.946 23.68 229.49 22.56 230.386 22.56C231.794 22.56 233.17 23.296 234.514 24.768C235.922 26.24 236.626 27.712 236.626 29.184C236.626 34.816 234.514 44.096 230.29 57.024C237.458 43.584 241.97 35.616 243.826 33.12C245.682 30.624 247.282 28.608 248.626 27.072C251.122 24.32 253.65 22.944 256.21 22.944C257.746 22.944 259.57 24.288 261.682 26.976C263.858 29.6 264.946 32.256 264.946 34.944C264.946 37.632 264.562 40.96 263.794 44.928C271.346 30.272 278.194 22.944 284.338 22.944ZM388.14 6.72C388.268 3.968 388.908 2.592 390.06 2.592C391.276 2.592 392.588 3.328 393.996 4.8C395.404 6.272 396.108 7.584 396.108 8.736C396.108 13.984 395.276 21.44 393.612 31.104C392.012 40.768 389.836 49.728 387.083 57.984C384.396 66.24 381.836 70.368 379.404 70.368C378.572 70.368 377.612 69.952 376.524 69.12C375.5 68.288 374.7 67.264 374.124 66.048C372.204 61.568 366.54 47.36 357.132 23.424C355.212 30.848 353.068 39.264 350.7 48.672C348.396 58.016 346.86 63.968 346.092 66.528C345.324 69.088 344.652 70.368 344.076 70.368C343.244 70.368 342.22 69.664 341.004 68.256C339.852 66.784 339.276 65.28 339.276 63.744C339.276 62.208 341.356 53.216 345.516 36.768C349.676 20.256 351.82 9.952 351.948 5.856C351.948 3.808 352.492 2.784 353.58 2.784C354.284 2.784 355.244 3.392 356.46 4.608C357.74 5.76 358.668 7.04 359.244 8.44799C369.548 35.2 376.076 51.584 378.828 57.6C382.988 46.592 385.772 33.44 387.18 18.144C387.82 11.104 388.14 7.296 388.14 6.72ZM440.148 44.64C440.148 47.2 439.028 50.112 436.788 53.376C435.06 57.28 433.204 62.912 431.22 70.272C429.236 77.568 427.572 82.784 426.228 85.92C423.54 92.448 419.412 95.712 413.844 95.712C409.3 95.712 405.46 94.464 402.324 91.968C399.252 89.536 397.716 87.104 397.716 84.672C397.716 83.648 398.036 82.624 398.676 81.6C399.252 80.576 399.86 80.064 400.5 80.064C401.204 80.064 401.972 80.544 402.804 81.504C403.636 82.464 404.404 83.488 405.108 84.576C405.876 85.728 406.996 86.784 408.468 87.744C410.004 88.704 411.476 89.184 412.884 89.184C414.292 89.184 415.348 88.96 416.052 88.512C416.756 88.128 417.428 87.456 418.068 86.496C418.708 85.6 419.252 84.672 419.7 83.712C420.148 82.816 420.628 81.504 421.14 79.776C421.716 78.112 422.164 76.672 422.484 75.456C422.804 74.24 423.252 72.544 423.828 70.368C424.404 68.128 424.884 66.336 425.268 64.992C420.276 68.704 416.212 70.56 413.076 70.56C409.94 70.56 407.22 69.312 404.916 66.816C402.612 64.256 401.46 61.312 401.46 57.984C401.46 54.592 402.708 50.112 405.204 44.544C407.764 38.976 411.188 33.984 415.476 29.568C419.764 25.152 423.956 22.944 428.052 22.944C430.676 22.944 432.884 23.936 434.676 25.92C437.62 29.184 439.092 33.824 439.092 39.84C439.092 40.608 439.06 41.152 438.996 41.472C439.764 42.56 440.148 43.616 440.148 44.64ZM409.236 58.944C409.236 60.032 409.588 60.928 410.292 61.632C410.996 62.272 411.892 62.592 412.98 62.592C416.18 62.592 419.956 60.704 424.308 56.928C428.66 53.088 431.732 48.64 433.524 43.584C433.268 42.752 433.044 41.472 432.852 39.744C432.66 38.016 432.468 36.64 432.276 35.616C432.084 34.592 431.668 33.568 431.028 32.544C430.388 31.456 429.556 30.912 428.532 30.912C426.036 30.912 423.22 32.704 420.084 36.288C416.948 39.872 414.356 43.872 412.308 48.288C410.26 52.704 409.236 56.256 409.236 58.944ZM481.679 25.632C481.935 24.608 482.191 23.904 482.447 23.52C482.703 23.136 483.247 22.944 484.079 22.944C484.975 22.944 486.031 23.776 487.247 25.44C488.527 27.104 489.167 28.704 489.167 30.24C489.167 31.072 487.759 36 484.943 45.024C482.127 54.048 479.951 61.216 478.415 66.528C477.647 69.216 476.559 70.56 475.151 70.56C474.319 70.56 473.615 70.208 473.039 69.504C472.463 68.8 472.175 67.52 472.175 65.664C472.175 63.808 472.911 60.448 474.383 55.584C471.695 59.936 468.783 63.52 465.647 66.336C462.511 69.152 459.631 70.56 457.007 70.56C454.447 70.56 452.015 69.344 449.711 66.912C447.407 64.48 446.255 61.984 446.255 59.424C446.255 53.344 448.015 45.76 451.535 36.672C455.119 27.52 458.095 22.944 460.463 22.944C461.615 22.944 462.607 23.488 463.439 24.576C464.335 25.6 464.783 26.784 464.783 28.128C464.783 28.704 463.919 30.784 462.191 34.368C460.463 37.888 458.735 42.048 457.007 46.848C455.279 51.584 454.415 55.744 454.415 59.328C454.415 60.352 454.735 61.216 455.375 61.92C456.015 62.56 456.783 62.88 457.679 62.88C460.111 62.88 462.991 60.736 466.319 56.448C469.711 52.16 472.783 47.168 475.535 41.472C478.287 35.776 480.335 30.496 481.679 25.632ZM531.45 22.944C532.474 22.944 533.562 23.712 534.714 25.248C535.93 26.72 536.538 28.384 536.538 30.24C536.538 31.52 535.226 35.872 532.602 43.296C529.978 50.72 528.186 55.776 527.226 58.464C526.33 61.088 525.082 64.608 523.482 69.024C521.946 73.376 520.442 77.632 518.97 81.792C515.77 90.944 510.97 95.52 504.57 95.52C500.922 95.52 497.434 94.4 494.105 92.16C490.777 89.984 489.113 87.712 489.113 85.344C489.113 84.448 489.529 83.456 490.361 82.368C491.13 81.28 491.802 80.736 492.378 80.736C492.954 80.736 493.882 81.44 495.162 82.848C498.874 87.072 502.042 89.184 504.666 89.184C506.65 89.184 508.442 87.424 510.042 83.904C511.642 80.448 513.146 76.512 514.554 72.096C516.026 67.744 516.826 65.344 516.954 64.896C517.146 64.448 517.338 63.872 517.53 63.168C517.786 62.464 518.01 61.824 518.202 61.248C513.658 67.456 509.178 70.56 504.762 70.56C502.074 70.56 499.578 69.312 497.273 66.816C495.034 64.32 493.914 61.376 493.914 57.984C493.914 54.592 494.746 50.016 496.41 44.256C498.074 38.496 500.026 33.504 502.266 29.28C504.506 25.056 506.33 22.944 507.738 22.944C508.89 22.944 509.946 23.488 510.906 24.576C511.93 25.6 512.442 26.656 512.442 27.744C512.442 28.832 511.61 31.104 509.946 34.56C504.762 45.184 502.17 53.44 502.17 59.328C502.17 60.352 502.49 61.216 503.13 61.92C503.77 62.56 504.538 62.88 505.434 62.88C507.738 62.88 510.49 60.832 513.69 56.736C516.89 52.64 519.834 47.776 522.522 42.144C524.762 37.408 527.098 31.36 529.53 24C529.786 23.296 530.426 22.944 531.45 22.944ZM577.794 12.864C578.37 13.568 578.754 14.208 578.946 14.784C579.202 15.36 579.33 15.904 579.33 16.416C579.33 16.864 579.106 17.28 578.658 17.664C578.21 18.048 577.538 18.24 576.642 18.24C575.81 18.24 574.658 17.632 573.186 16.416C571.714 15.2 570.562 14.08 569.73 13.056C568.898 12.032 567.65 10.464 565.986 8.352C564.194 9.312 562.306 10.56 560.322 12.096C558.402 13.568 556.802 14.752 555.522 15.648C554.306 16.544 553.25 16.992 552.354 16.992C551.458 16.992 550.69 16.704 550.049 16.128C549.474 15.552 549.186 14.688 549.186 13.536C549.186 12.384 549.698 11.264 550.722 10.176C551.746 9.02399 553.026 7.99999 554.562 7.10399C556.162 6.20799 557.474 5.43999 558.498 4.8C559.522 4.16 560.354 3.648 560.994 3.264C561.634 2.88 562.306 2.49599 563.01 2.112C564.546 1.344 565.602 0.959999 566.178 0.959999C566.818 0.959999 567.394 1.12 567.906 1.44C568.482 1.76 568.93 2.112 569.25 2.496C569.762 3.136 570.498 4.096 571.458 5.376C572.482 6.592 573.442 7.712 574.338 8.736C575.298 9.76 575.97 10.528 576.354 11.04C576.738 11.488 577.218 12.096 577.794 12.864ZM541.026 40.608C543.458 35.616 546.594 31.424 550.434 28.032C554.338 24.64 558.178 22.944 561.954 22.944C565.73 22.944 569.154 24.736 572.226 28.32C575.362 31.904 576.93 35.424 576.93 38.88C576.93 42.272 575.074 45.056 571.362 47.232C567.65 49.344 563.458 50.4 558.786 50.4C554.178 50.4 550.018 49.888 546.306 48.864C545.41 51.68 544.962 54.208 544.962 56.448C544.962 58.624 545.634 60.32 546.978 61.536C548.386 62.752 550.658 63.36 553.794 63.36C556.93 63.36 560.162 62.816 563.49 61.728C566.882 60.576 568.738 60 569.058 60C570.722 60 571.554 60.64 571.554 61.92C571.554 63.648 569.602 65.536 565.698 67.584C561.858 69.568 558.082 70.56 554.37 70.56C549.378 70.56 545.282 69.088 542.082 66.144C538.946 63.136 537.378 59.36 537.378 54.816C537.378 50.272 538.594 45.536 541.026 40.608ZM548.418 43.488C551.298 44 554.306 44.256 557.442 44.256C560.578 44.256 563.362 43.744 565.794 42.72C568.226 41.632 569.442 40.224 569.442 38.496C569.442 36.768 568.642 35.008 567.042 33.216C565.506 31.424 563.97 30.528 562.434 30.528C560.002 30.528 557.506 31.776 554.946 34.272C552.45 36.704 550.274 39.776 548.418 43.488ZM590.415 53.856C596.559 43.424 601.551 35.68 605.391 30.624C609.295 25.504 612.463 22.944 614.895 22.944C617.391 22.944 619.727 24.256 621.903 26.88C624.143 29.504 625.263 32.288 625.263 35.232C625.263 39.84 624.207 45.472 622.095 52.128C618.255 64.416 614.799 70.56 611.727 70.56C610.319 70.56 609.615 69.6 609.615 67.68C609.615 66.336 610.287 63.616 611.631 59.52C613.039 55.36 614.319 51.296 615.471 47.328C616.687 43.296 617.295 40.288 617.295 38.304C617.295 36.256 616.975 34.752 616.335 33.792C615.759 32.832 615.151 32.352 614.511 32.352C613.935 32.352 613.327 32.544 612.687 32.928C612.047 33.312 611.311 33.952 610.479 34.848C609.711 35.744 608.975 36.64 608.271 37.536C607.567 38.368 606.671 39.584 605.583 41.184C604.559 42.784 603.695 44.16 602.991 45.312C602.287 46.4 601.263 48 599.919 50.112C598.575 52.224 597.551 53.824 596.847 54.912C596.143 56 595.215 57.472 594.063 59.328C592.911 61.184 591.983 62.624 591.279 63.648C590.639 64.672 589.903 65.792 589.071 67.008C587.471 69.376 586.191 70.56 585.231 70.56C584.335 70.56 583.279 69.856 582.063 68.448C580.847 66.976 580.239 65.696 580.239 64.608C580.239 64.288 580.463 63.424 580.911 62.016C582.127 58.304 583.471 53.728 584.943 48.288C586.415 42.784 587.215 36.544 587.343 29.568C587.535 24.896 588.207 22.56 589.359 22.56C590.767 22.56 592.175 23.296 593.583 24.768C594.991 26.24 595.695 27.872 595.695 29.664C595.695 31.392 595.151 34.784 594.063 39.84C593.039 44.832 591.823 49.504 590.415 53.856Z" fill="black"/>
</svg>
